:FULLY-SPECIFIED
:FORCE-ALL-JOINTS-BE-3DOF
:DEGREES
291
root 10.0277 16.829 3.9186 5.22321 1.2242 3.36943
lfemur -3.06919 4.96168 -29.1604
ltibia 19.7459 0 0
lfoot -18.5969 4.31426 0
ltoes -5.51747 0 0
rfemur -37.5263 -0.397585 16.0123
rtibia 47.5574 0 0
rfoot -21.2615 -12.3942 0
rtoes -24.047 0 0
lowerback -5.32971 -3.57571 -4.55466
upperback -0.0943332 -4.5543 2.12449
thorax 3.40205 -2.35858 4.36779
lowerneck -21.7523 -3.727 -11.469
upperneck 22.8925 -4.41028 11.2299
head 11.5928 -1.59662 5.4159
lclavicle 3.31872e-14 8.80675e-15 0
lhumerus -12.1839 -19.6159 86.8685
lradius 26.7712 0 0
lwrist 3.7514 0 0
lhand -16.0076 -24.6149 0
lfingers 7.12502 0 0
lthumb 10.1926 5.11436 0
rclavicle 3.31872e-14 8.80675e-15 0
rhumerus -47.2185 7.4632 -82.7332
rradius 40.5076 0 0
rwrist -22.8057 0 0
rhand -29.6582 -21.4873 0
rfingers 7.12502 0 0
rthumb -2.9873 -51.446 0
292
root 10.0172 16.8162 4.08304 5.21478 1.44115 3.41246
lfemur -2.05279 4.93593 -29.0109
ltibia 19.0829 0 0
lfoot -18.2786 4.1251 0
ltoes -5.76637 0 0
rfemur -38.0845 -0.391208 15.9713
rtibia 47.5886 0 0
rfoot -21.2136 -12.3057 0
rtoes -24.0349 0 0
lowerback -5.37216 -3.65273 -4.60602
upperback -0.0932988 -4.65198 2.13048
thorax 3.43759 -2.40807 4.39165
lowerneck -21.724 -3.72673 -11.4796
upperneck 22.8974 -4.4144 11.2438
head 11.5898 -1.59844 5.42251
lclavicle 3.37574e-14 8.46072e-15 0
lhumerus -12.1172 -20.0912 87.1387
lradius 27.0672 0 0
lwrist 3.91482 0 0
lhand -15.9017 -24.644 0
lfingers 7.12502 0 0
lthumb 10.2947 5.07772 0
rclavicle 3.37574e-14 8.46072e-15 0
rhumerus -47.3037 7.40834 -82.6956
rradius 40.2874 0 0
rwrist -22.6568 0 0
rhand -29.6314 -21.5426 0
rfingers 7.12502 0 0
rthumb -2.96147 -51.5015 0
293
root 10.0068 16.8034 4.24747 5.21336 1.66585 3.45201
lfemur -1.00122 4.91566 -28.8402
ltibia 18.385 0 0
lfoot -17.9113 3.91744 0
ltoes -6.03213 0 0
rfemur -38.618 -0.382672 15.9297
rtibia 47.5973 0 0
rfoot -21.1067 -12.1814 0
rtoes -24.0078 0 0
lowerback -5.42056 -3.72812 -4.65662
upperback -0.0972682 -4.74728 2.13626
thorax 3.47137 -2.45628 4.41465
lowerneck -21.6875 -3.72959 -11.4954
upperneck 22.8934 -4.42328 11.2646
head 11.5832 -1.60231 5.43155
lclavicle 3.42996e-14 8.06776e-15 0
lhumerus -12.0953 -20.5868 87.4351
lradius 27.3797 0 0
lwrist 4.07241 0 0
lhand -15.7704 -24.673 0
lfingers 7.12502 0 0
lthumb 10.4211 5.03945 0
rclavicle 3.42996e-14 8.06776e-15 0
rhumerus -47.3996 7.34698 -82.6612
rradius 40.0449 0 0
rwrist -22.4919 0 0
rhand -29.6009 -21.6043 0
rfingers 7.12502 0 0
rthumb -2.93196 -51.5636 0
294
root 9.99627 16.7906 4.4119 5.21859 1.89763 3.48812
lfemur 0.0816315 4.90063 -28.6496
ltibia 17.6559 0 0
lfoot -17.4982 3.6927 0
ltoes -6.31339 0 0
rfemur -39.127 -0.371988 15.8879
rtibia 47.5845 0 0
rfoot -20.944 -12.0231 0
rtoes -23.9663 0 0
lowerback -5.47456 -3.8018 -4.70634
upperback -0.105982 -4.84012 2.14183
thorax 3.5034 -2.50317 4.43677
lowerneck -21.6432 -3.73545 -11.5162
upperneck 22.881 -4.43673 11.292
head 11.573 -1.60813 5.4429
lclavicle 3.48138e-14 7.63004e-15 0
lhumerus -12.1166 -21.1008 87.7559
lradius 27.7071 0 0
lwrist 4.22443 0 0
lhand -15.6153 -24.7017 0
lfingers 7.12502 0 0
lthumb 10.5705 4.99975 0
rclavicle 3.48138e-14 7.63004e-15 0
rhumerus -47.5053 7.27973 -82.6298
rradius 39.7817 0 0
rwrist -22.312 0 0
rhand -29.5668 -21.6723 0
rfingers 7.12502 0 0
rthumb -2.89901 -51.6319 0
295
root 9.98578 16.7777 4.57634 5.23011 2.13582 3.5208
lfemur 1.19185 4.89058 -28.4402
ltibia 16.8991 0 0
lfoot -17.0424 3.45229 0
ltoes -6.6088 0 0
rfemur -39.6116 -0.359169 15.8462
rtibia 47.5508 0 0
rfoot -20.7287 -11.8327 0
rtoes -23.9113 0 0
lowerback -5.53375 -3.8737 -4.75508
upperback -0.119179 -4.93042 2.14721
thorax 3.53372 -2.54869 4.45801
lowerneck -21.5916 -3.74419 -11.5416
upperneck 22.8607 -4.45453 11.3256
head 11.5596 -1.61582 5.4564
lclavicle 3.53002e-14 7.14971e-15 0
lhumerus -12.1791 -21.6315 88.0996
lradius 28.0484 0 0
lwrist 4.37112 0 0
lhand -15.438 -24.7301 0
lfingers 7.12502 0 0
lthumb 10.7414 4.9588 0
rclavicle 3.53002e-14 7.14971e-15 0
rhumerus -47.6199 7.20722 -82.6014
rradius 39.4995 0 0
rwrist -22.1183 0 0
rhand -29.5294 -21.746 0
rfingers 7.12502 0 0
rthumb -2.86289 -51.7061 0
296
root 9.97529 16.7649 4.74077 5.24757 2.37976 3.55006
lfemur 2.32554 4.88525 -28.2131
ltibia 16.1181 0 0
lfoot -16.5468 3.19761 0
ltoes -6.917 0 0
rfemur -40.072 -0.344225 15.805
rtibia 47.4974 0 0
rfoot -20.4641 -11.612 0
rtoes -23.8434 0 0
lowerback -5.59775 -3.94372 -4.80271
upperback -0.136602 -5.01809 2.15241
thorax 3.56235 -2.5928 4.47835
lowerneck -21.5332 -3.75567 -11.5713
upperneck 22.8329 -4.47649 11.3651
head 11.5432 -1.6253 5.47192
lclavicle 3.57585e-14 6.62895e-15 0
lhumerus -12.2812 -22.177 88.4646
lradius 28.4021 0 0
lwrist 4.51271 0 0
lhand -15.2398 -24.7582 0
lfingers 7.12502 0 0
lthumb 10.9323 4.91679 0
rclavicle 3.57585e-14 6.62895e-15 0
rhumerus -47.7425 7.13005 -82.5758
rradius 39.1998 0 0
rwrist -21.9118 0 0
rhand -29.4889 -21.8251 0
rfingers 7.12502 0 0
rthumb -2.82387 -51.7856 0
297
root 9.9648 16.7521 4.90521 5.27061 2.62878 3.57594
lfemur 3.4788 4.8844 -27.9695
ltibia 15.3164 0 0
lfoot -16.0146 2.93007 0
ltoes -7.23661 0 0
rfemur -40.5084 -0.327168 15.7645
rtibia 47.425 0 0
rfoot -20.1536 -11.3629 0
rtoes -23.7634 0 0
lowerback -5.6662 -4.01179 -4.84914
upperback -0.157989 -5.10304 2.15745
thorax 3.58932 -2.63548 4.49777
lowerneck -21.4684 -3.76978 -11.6051
upperneck 22.7981 -4.50241 11.41
head 11.5238 -1.63648 5.4893
lclavicle 3.6189e-14 6.06992e-15 0
lhumerus -12.4211 -22.7356 88.8492
lradius 28.7671 0 0
lwrist 4.64947 0 0
lhand -15.0223 -24.7858 0
lfingers 7.12502 0 0
lthumb 11.1418 4.8739 0
rclavicle 3.6189e-14 6.06992e-15 0
rhumerus -47.8721 7.04885 -82.5531
rradius 38.8842 0 0
rwrist -21.6937 0 0
rhand -29.4458 -21.9093 0
rfingers 7.12502 0 0
rthumb -2.78219 -51.8702 0
298
root 9.95431 16.7393 5.06964 5.29889 2.88221 3.59846
lfemur 4.64772 4.88777 -27.7107
ltibia 14.4977 0 0
lfoot -15.4488 2.65109 0
ltoes -7.5663 0 0
rfemur -40.921 -0.30801 15.7251
rtibia 47.3345 0 0
rfoot -19.8004 -11.0871 0
rtoes -23.672 0 0
lowerback -5.73869 -4.07783 -4.89425
upperback -0.183082 -5.18519 2.16233
thorax 3.61465 -2.67667 4.51626
lowerneck -21.3977 -3.78638 -11.6427
upperneck 22.7567 -4.53209 11.46
head 11.5018 -1.64927 5.50842
lclavicle 3.65916e-14 5.47477e-15 0
lhumerus -12.597 -23.3055 89.2519
lradius 29.142 0 0
lwrist 4.78162 0 0
lhand -14.7871 -24.8128 0
lfingers 7.12502 0 0
lthumb 11.3684 4.83031 0
rclavicle 3.65916e-14 5.47477e-15 0
rhumerus -48.0078 6.96423 -82.533
rradius 38.5543 0 0
rwrist -21.4649 0 0
rhand -29.4002 -21.998 0
rfingers 7.12502 0 0
rthumb -2.73813 -51.9595 0
299
root 9.94382 16.7264 5.23408 5.33204 3.13937 3.61762
lfemur 5.82841 4.89511 -27.4377
ltibia 13.6654 0 0
lfoot -14.8525 2.36207 0
ltoes -7.90469 0 0
rfemur -41.3098 -0.28676 15.687
rtibia 47.2268 0 0
rfoot -19.4079 -10.7865 0
rtoes -23.57 0 0
lowerback -5.81485 -4.14176 -4.93794
upperback -0.21162 -5.26447 2.16708
thorax 3.63838 -2.71634 4.5338
lowerneck -21.3216 -3.80535 -11.6838
upperneck 22.7092 -4.56532 11.5147
head 11.4774 -1.66359 5.52912
lclavicle 3.69663e-14 4.84568e-15 0
lhumerus -12.8071 -23.8849 89.671
lradius 29.5256 0 0
lwrist 4.90941 0 0
lhand -14.5356 -24.8393 0
lfingers 7.12502 0 0
lthumb 11.6107 4.78622 0
rclavicle 3.69663e-14 4.84568e-15 0
rhumerus -48.1486 6.8768 -82.5156
rradius 38.2117 0 0
rwrist -21.2266 0 0
rhand -29.3523 -22.091 0
rfingers 7.12502 0 0
rthumb -2.69194 -52.053 0
300
root 9.93333 16.7136 5.39851 5.36971 3.39962 3.63346
lfemur 7.01697 4.90616 -27.1517
ltibia 12.8232 0 0
lfoot -14.2288 2.06443 0
ltoes -8.25043 0 0
rfemur -41.6751 -0.263432 15.6506
rtibia 47.1027 0 0
rfoot -18.9791 -10.4629 0
rtoes -23.458 0 0
lowerback -5.8943 -4.2035 -4.98008
upperback -0.243344 -5.34077 2.17169
thorax 3.66052 -2.75446 4.55037
lowerneck -21.2405 -3.82657 -11.7281
upperneck 22.656 -4.60191 11.5738
head 11.4507 -1.67936 5.55127
lclavicle 3.73132e-14 4.18481e-15 0
lhumerus -13.0498 -24.472 90.1049
lradius 29.9166 0 0
lwrist 5.03309 0 0
lhand -14.2693 -24.865 0
lfingers 7.12502 0 0
lthumb 11.8672 4.74181 0
rclavicle 3.73132e-14 4.18481e-15 0
rhumerus -48.2936 6.78719 -82.5006
rradius 37.858 0 0
rwrist -20.9799 0 0
rhand -29.3026 -22.1878 0
rfingers 7.12502 0 0
rthumb -2.64388 -52.1503 0
301
root 9.92284 16.7008 5.56294 5.41155 3.66227 3.64599
lfemur 8.20949 4.92068 -26.854
ltibia 11.9745 0 0
lfoot -13.5807 1.75956 0
ltoes -8.60216 0 0
rfemur -42.017 -0.238036 15.6162
rtibia 46.9633 0 0
rfoot -18.5176 -10.1181 0
rtoes -23.3368 0 0
lowerback -5.97666 -4.26296 -5.02058
upperback -0.277995 -5.41403 2.1762
thorax 3.68111 -2.79097 4.56597
lowerneck -21.1549 -3.84991 -11.7754
upperneck 22.5976 -4.64166 11.6368
head 11.422 -1.69649 5.57472
lclavicle 3.76322e-14 3.49431e-15 0
lhumerus -13.3231 -25.065 90.5519
lradius 30.3137 0 0
lwrist 5.1529 0 0
lhand -13.9898 -24.8899 0
lfingers 7.12502 0 0
lthumb 12.1365 4.69726 0
rclavicle 3.76322e-14 3.49431e-15 0
rhumerus -48.4418 6.696 -82.4881
rradius 37.4947 0 0
rwrist -20.7258 0 0
rhand -29.2511 -22.2881 0
rfingers 7.12502 0 0
rthumb -2.59421 -52.2512 0
